<?xml version="1.0" encoding="utf-8"?>
<?xml-stylesheet href="../stylesheets/main.css" type="text/css"?>
<!-- Generator: Adobe Illustrator 23.0.1, SVG Export Plug-In . SVG Version: 6.00 Build 0)  -->
<svg version="1.1" id="Layer_1" xmlns="http://www.w3.org/2000/svg" xmlns:xlink="http://www.w3.org/1999/xlink" x="0px" y="0px"
	 viewBox="0 0 253 252" style="enable-background:new 0 0 253 252;" xml:space="preserve">
<style type="text/css">
	.st0{fill:#583725;}
</style>
<g>
	<g>
		<path class="st0" d="M29.1,126.2c0.3-54.6,43.8-98.9,98.9-99c55-0.1,98.6,44.1,99,98.5c0.3,54.6-44.1,99.2-98.8,99.3
			C73.7,225.1,29.4,180.9,29.1,126.2z M223.6,126.2c0.1-52.5-42.5-95.4-95.2-95.6c-52.6-0.3-95.6,42.5-95.8,95.3
			c-0.2,52.6,42.5,95.5,95.3,95.7C180.5,221.8,223.5,179,223.6,126.2z"/>
		<path class="st0" d="M155.1,120.9c1.3-2.6,2.5-4.8,3.6-7.1c0.2,0,0.4,0.1,0.6,0.1c0,2.9,0,5.9,0,8.9c1.7,0.1,2.9,0.2,4.9,0.3
			c-1.4,1.2-2.5,2-3.9,3.2c1.7,1.4,3.3,2.6,4.9,3.9c-0.2,0.2-0.4,0.5-0.6,0.7c-2.1-0.7-4.2-1.3-6.5-2c-0.1,1.5-0.2,2.8-0.3,4.8
			c-1.2-1.5-2.1-2.5-3.1-3.7c-2.1,1.1-4.2,2.3-6.2,3.4c-0.1-0.1-0.2-0.2-0.3-0.3c1.3-1.9,2.5-3.8,3.9-5.8c-1.8-0.9-3.5-1.8-5.8-3.1
			c2.4-0.4,4.1-0.6,5.6-0.8c-1.3-2.9-3-5.8-3.7-8.8c-1.5-6.4,0.7-12.3,3.7-17.9c2.6-4.9,5.7-9.6,7.9-14.7c1.4-3.3,1.9-7.2,2.2-10.9
			c0.3-3.1-1.5-5.1-4.2-5.8c-3-0.8-4.9,0-6.7,2.8c-1.2,1.9-2.3,3.8-3.4,5.8c-0.3,0.5-0.2,1.4,0,2c0.3,0.9,0.8,1.8,1.2,2.7
			c1,2.6,0.9,5-1.6,6.9c-0.7,0.5-1.1,1.2-1.8,1.7c-1.3,1-1.4,2.1-0.8,3.7c5.4,15.3-3,31.1-18.6,35.6c-12.2,3.4-25.5-2.6-31.5-14.4
			c-5.7-11.4-2.6-25.4,7.6-33.3c8-6.2,16.9-7.7,26.6-4.1c0.7,0.3,1.8-0.1,2.5-0.5c0.6-0.3,1.1-1,1.6-1.5c3.6-3.5,5.3-3.8,9.9-1.4
			c0.6,0.3,1.1,0.6,2,1.1c1-1.8,2-3.5,3-5.2c1.5-2.5,3.3-4.6,6.3-5.2c6.6-1.3,11.5,3,11.5,10.2c0,6.1-2.5,11.5-5.3,16.7
			c-1.8,3.3-3.9,6.4-5.5,9.8c-1.4,2.8-2.4,5.8-3.2,8.9C150.1,112.3,151.6,116.6,155.1,120.9z M119,124c16.4,0,28.1-16.5,22.5-31.9
			c-0.5-1.3-1-2-2.5-2.3c-4.5-1-8.1-3.7-9.2-8.2c-0.8-3.1-2.6-4.2-5.3-4.6c-2.4-0.4-4.8-0.9-7.2-0.7c-13.1,0.8-22.8,12-22.3,25.3
			C95.5,113.9,106.2,124,119,124z M135.3,75.1c-1.4,1.4-3.4,2.3-2.6,4.7c1.1,3.5,3.3,5.9,6.9,6.4c1.4,0.2,3-1.2,4.5-1.9
			c-0.1-0.2-0.1-0.5-0.2-0.7C139.6,82.2,136.9,79.2,135.3,75.1z M145.4,80c-0.5-1.2-0.4-2.7-2.4-2.4c-0.5,0.1-1.6-1.2-1.5-1.6
			c0.4-2.1-1.2-1.9-2.4-2.4C139.5,77.1,141.9,79.5,145.4,80z"/>
		<path class="st0" d="M97,163.9c0.5,1.3,1.1,2.5,1.3,3.8c0.1,0.5-0.5,1.5-1.1,1.8c-0.7,0.3-1.6,0.2-2.5,0.1
			c-0.7-0.1-1.6-0.2-1.9-0.6c-0.2-0.4,0.4-1.2,0.5-1.9c0.1-2,0.2-4,0.2-6c0-0.3-1.1-0.8-1.6-0.7c-0.6,0.1-1.5,0.8-1.5,1.3
			c0.1,2,0.4,4,0.8,5.9c0.3,1.3,0.3,2.1-1.3,2.1c-0.7,0-1.5,0.1-2.2,0s-1.6-0.2-1.9-0.7c-0.2-0.4,0.4-1.2,0.5-1.9
			c0.2-2.2,0.3-4.3,0.3-6.5c0-0.8-0.5-1.7-0.7-2.5c1-0.2,2.1-0.4,3.1-0.5c1.1-0.1,2.2,0.1,3.4,0.1c0.2,0,0.5-0.1,0.7,0
			c2.4,0.8,4.7,0.5,7.1,0.1s3.5,1,3.9,3.5c0.4,2.3-0.8,4.9,1.3,6.8c0.1,0.1,0.1,0.4,0,0.5c-0.3,0.4-0.7,1.1-1,1.1
			c-1.5,0-3.1-0.2-4.6-0.3c0.1-0.7,0.2-1.3,0.3-2c0.2-2,0.4-4,0.4-6c0-0.3-1.2-1.1-1.6-0.9c-0.6,0.1-1.2,0.9-1.5,1.5
			c-0.3,0.5-0.1,1.3-0.1,2C97.2,163.8,97.1,163.9,97,163.9z"/>
		<path class="st0" d="M55.7,153.2c3.1,0,5.6-0.2,8,0c4.7,0.4,6,3.2,3.5,7.2c0.5,0.7,1.1,1.4,1.4,2.3c1.2,2.9-0.2,5.5-3.2,6.4
			c-0.6,0.2-1.3,0.3-2,0.4c-2.4,0-4.8,0-7.6,0C57.4,164.1,57.6,158.8,55.7,153.2z M60.7,162.6c0,1.6,0,2.8,0,4.4
			c1.8-0.4,4.3,0.5,4.3-2.3S62.6,162.7,60.7,162.6z M60.7,160.3c1.5-0.7,2.7-1.1,3.7-1.7c0.3-0.2,0.2-1.6,0-1.8
			c-1.1-0.5-2.3-0.8-3.7-1.2C60.7,157.3,60.7,158.4,60.7,160.3z"/>
		<path class="st0" d="M108.2,169.4c0-3.7,0.1-7.3,0-11c0-1.2-0.8-2.4-0.8-3.7c0-0.7,0.5-1.9,1-2.1c0.8-0.4,1.9-0.1,3.2-0.1
			c0.1,1.8,0.2,3.5,0.3,5.1c0.2,0.1,0.4,0.3,0.5,0.2c2.3-0.6,4.7-0.9,6,1.4c1.4,2.6,1.4,5.5-0.2,8.1c-1.4,2.3-3.7,2.5-6.2,2.2
			C110.9,169.4,109.8,169.4,108.2,169.4z M111.7,163.7L111.7,163.7c0,0.3,0,0.7,0,1c0.1,1-0.4,2.3,1.3,2.4c1.5,0.1,2.4-0.7,2.5-2.1
			c0.1-1.1,0.2-2.2-0.1-3.2c-0.2-0.6-1.2-1.5-1.7-1.5c-0.7,0.1-1.5,1-1.9,1.7C111.4,162.4,111.7,163.1,111.7,163.7z"/>
		<path class="st0" d="M140.8,168.2c-2.5,1.6-5.2,1.7-8.1,1.2c-0.6-0.1-1.2-0.5-1.8-0.9c-2.6-2-3.2-9.2-1-12.6
			c1.8-2.9,5.9-3.9,9.6-2c0.6,0.3,1.3,1.3,1.3,1.9c0,0.7-0.7,1.5-1.1,2.2c-0.7-0.5-1.6-0.8-2.2-1.4c-1.2-1.4-4.2-0.9-4.6,1.1
			c-0.4,2.3-0.6,4.9,0,7.1c0.7,2.7,3.3,2,5.3,1.6C139.8,166.1,140.8,166.3,140.8,168.2z"/>
		<path class="st0" d="M161.7,157.7c1.7,0.1,2.6,0.2,3.6,0.3c0.3,2,0.3,2-3.2,2.4c0,1.7-0.1,3.5,0.1,5.3c0,0.5,0.9,0.9,1.3,1.4
			c0.4,0.5,0.9,1.1,0.8,1.5c-0.1,0.4-0.9,0.8-1.5,0.9c-1.6,0.1-3.3,0-5.2,0c0-0.8-0.2-1.5,0-2c1.3-2.6,1.5-5.2,0-7.8
			c-0.2-0.4,0-1.1,0.2-1.6c0.2-0.7,0.7-1.3,0.9-1.9c0.8-3.5,3.6-5,7-3.4c0.6,0.3,1.2,1.1,1.4,1.7c0.1,0.5-0.4,1.6-0.8,1.6
			c-0.7,0.1-1.4-0.3-2.1-0.6c-0.4-0.1-1.2-0.5-1.2-0.5C162.5,155.8,162.2,156.6,161.7,157.7z"/>
		<path class="st0" d="M172.5,157.2c1.2,1.3,4.1-0.6,3.5,2.7c-1.1,0.1-2.1,0.2-3.4,0.4c0,1.8-0.1,3.5,0.1,5.2c0.1,0.5,0.8,1,1.2,1.5
			s0.7,1,1,1.5c-0.6,0.3-1.1,0.9-1.7,1c-1.6,0.1-3.3,0-5,0c-0.1-0.6-0.3-1.1-0.2-1.4c1.5-2.9,1.2-5.7,0.3-8.8
			c-0.5-1.7,1.1-4.7,2.7-6.1c1.1-1,3.7-0.4,5.6-0.2c0.4,0,0.6,1.7,0.9,2.5c-0.8,0.2-1.6,0.5-2.3,0.4c-0.6,0-1.2-0.6-1.7-0.9
			C173,155.9,172.7,156.7,172.5,157.2z"/>
		<path class="st0" d="M143.4,163.9c0-4.1,2.2-6.4,5.9-6.4c3.5,0,5.4,2,5.5,5.7c0.1,3.9-2.1,6.5-5.6,6.5
			C145.4,169.8,143.5,167.8,143.4,163.9z M147,163.6c0.2,1.5-0.1,3.4,2.2,3.4c2.1,0,2-2,2-3.4c0-1.5,0-3.5-2.2-3.5
			C146.9,160.2,147.1,162,147,163.6z"/>
		<path class="st0" d="M77.1,169.7c-3.7-0.1-5.7-2.2-5.6-6.1c0.1-3.9,2.4-6.2,6-6.1c3.5,0,5.5,2.3,5.5,6
			C82.9,167.4,80.7,169.8,77.1,169.7z M80,164.2c-0.7-2-0.6-3.9-2.7-4s-2.2,1.7-2.1,3.2c0,1.6-0.1,3.8,2.2,3.5
			C78.3,166.8,79.1,165.1,80,164.2z"/>
		<path class="st0" d="M194.9,164.5c0.5,2.9,2.3,2.4,3.9,2.4c0.7,0,1.4,0.4,2.1,0.7c-0.5,0.6-1,1.6-1.6,1.8
			c-2.4,0.7-4.8,0.7-6.8-1.2c-1.6-1.6-1.9-5.5-0.7-7.8s3.3-3,5.7-2.8c2.8,0.2,4.6,2.6,3.9,5.2c-0.2,0.7-1.3,1.5-2,1.6
			C198,164.7,196.6,164.5,194.9,164.5z M198.2,162c0.1-0.3,0.2-0.6,0.3-0.9c-0.7-0.4-1.4-1-2-1c-0.6,0.1-1.1,1-1.6,1.5
			c0.1,0.2,0.2,0.4,0.4,0.6C196.2,162.2,197.2,162.1,198.2,162z"/>
		<path class="st0" d="M182.1,164.5c0.6,2.6,1.2,2.8,6.1,1.9c-0.5,1.1-0.6,2.2-1.1,2.6c-1.9,1.3-5.7,0.7-7.3-0.7
			c-1.6-1.5-2-5.5-0.9-7.8c1-2,3.4-3.3,5.8-3c2.8,0.3,4.5,2.7,3.7,5.4c-0.2,0.7-1.3,1.4-2.1,1.5C185,164.7,183.6,164.5,182.1,164.5z
			 M185.3,162c0.1-0.2,0.2-0.4,0.3-0.7c-0.6-0.4-1.3-1.3-1.8-1.2c-0.7,0.1-1.3,0.9-2,1.4c0.1,0.2,0.3,0.5,0.4,0.7
			C183.3,162.2,184.3,162.1,185.3,162z"/>
	</g>
</g>
<g id="outer-circle">
	<path class="st0" d="M233.3,96.1c0.9-0.3,1.9-0.5,3.2-0.9c10.1,42.3,1.4,79.8-29.3,110.7c-27.3,27.4-61,36.9-99.4,31.1
		c0.2-1.3,0.3-2.3,0.5-3.3c39.4,5.6,73.5-4.7,100.4-34.3C235.6,169.7,242.4,134.8,233.3,96.1z"/>
	<path class="st0" d="M89.1,228.2c-0.4,1.1-0.8,1.9-1.1,2.8C21.4,206.7-8.3,121.2,38.3,58.5c0.8,0.6,1.7,1.3,2.6,2
		c-21,29.3-27.3,61.4-17.4,95.9C33.4,190.8,56,214.3,89.1,228.2z"/>
	<path class="st0" d="M54.3,45.5c-0.7-0.8-1.3-1.5-2.2-2.4c24.6-21.6,53-32,85.5-28.9c41.3,3.9,71.3,25.2,91.3,61.5
		c-0.7,0.5-1.1,0.8-1.5,1s-0.9,0.4-1.5,0.7c-17-31.6-42.6-51.7-77.9-58.3C112.7,12.4,81.6,22.1,54.3,45.5z"/>
</g>
</svg>
