<?xml version="1.0" encoding="utf-8"?>
<!-- Generator: Adobe Illustrator 23.0.1, SVG Export Plug-In . SVG Version: 6.00 Build 0)  -->
<svg version="1.1" id="Layer_1" xmlns="http://www.w3.org/2000/svg" xmlns:xlink="http://www.w3.org/1999/xlink" x="0px" y="0px"
	 viewBox="0 0 97 95" style="enable-background:new 0 0 97 95;" xml:space="preserve">
<style type="text/css">
	.st0{display:none;fill:#583725;}
	.st1{fill:#583725;}
	.st2{display:none;}
	.st3{display:inline;fill:#583725;}
</style>
<g>
	<g>
		<path class="st0" d="M-51.9,77.3c0.3-54.6,43.8-98.9,98.9-99c55-0.1,98.6,44.1,99,98.5c0.3,54.6-44.1,99.2-98.8,99.3
			C-7.3,176.2-51.6,132-51.9,77.3z M142.6,77.3c0.1-52.5-42.5-95.4-95.2-95.6C-5.2-18.6-48.2,24.2-48.4,77
			c-0.2,52.6,42.5,95.5,95.3,95.7C99.5,172.9,142.5,130.1,142.6,77.3z"/>
		<path class="st1" d="M74.1,72c1.3-2.6,2.5-4.8,3.6-7.1c0.2,0,0.4,0.1,0.6,0.1c0,2.9,0,5.9,0,8.9c1.7,0.1,2.9,0.2,4.9,0.3
			c-1.4,1.2-2.5,2-3.9,3.2c1.7,1.4,3.3,2.6,4.9,3.9c-0.2,0.2-0.4,0.5-0.6,0.7c-2.1-0.7-4.2-1.3-6.5-2c-0.1,1.5-0.2,2.8-0.3,4.8
			c-1.2-1.5-2.1-2.5-3.1-3.7c-2.1,1.1-4.2,2.3-6.2,3.4c-0.1-0.1-0.2-0.2-0.3-0.3c1.3-1.9,2.5-3.8,3.9-5.8c-1.8-0.9-3.5-1.8-5.8-3.1
			c2.4-0.4,4.1-0.6,5.6-0.8c-1.3-2.9-3-5.8-3.7-8.8c-1.5-6.4,0.7-12.3,3.7-17.9c2.6-4.9,5.7-9.6,7.9-14.7c1.4-3.3,1.9-7.2,2.2-10.9
			c0.3-3.1-1.5-5.1-4.2-5.8c-3-0.8-4.9,0-6.7,2.8c-1.2,1.9-2.3,3.8-3.4,5.8c-0.3,0.5-0.2,1.4,0,2c0.3,0.9,0.8,1.8,1.2,2.7
			c1,2.6,0.9,5-1.6,6.9c-0.7,0.5-1.1,1.2-1.8,1.7c-1.3,1-1.4,2.1-0.8,3.7c5.4,15.3-3,31.1-18.6,35.6C32.9,81,19.6,75,13.6,63.2
			C7.9,51.8,11,37.8,21.2,29.9c8-6.2,16.9-7.7,26.6-4.1c0.7,0.3,1.8-0.1,2.5-0.5c0.6-0.3,1.1-1,1.6-1.5c3.6-3.5,5.3-3.8,9.9-1.4
			c0.6,0.3,1.1,0.6,2,1.1c1-1.8,2-3.5,3-5.2c1.5-2.5,3.3-4.6,6.3-5.2c6.6-1.3,11.5,3,11.5,10.2c0,6.1-2.5,11.5-5.3,16.7
			c-1.8,3.3-3.9,6.4-5.5,9.8c-1.4,2.8-2.4,5.8-3.2,8.9C69.1,63.4,70.6,67.7,74.1,72z M38,75.1c16.4,0,28.1-16.5,22.5-31.9
			c-0.5-1.3-1-2-2.5-2.3c-4.5-1-8.1-3.7-9.2-8.2c-0.8-3.1-2.6-4.2-5.3-4.6c-2.4-0.4-4.8-0.9-7.2-0.7c-13.1,0.8-22.8,12-22.3,25.3
			C14.5,65,25.2,75.1,38,75.1z M54.3,26.2c-1.4,1.4-3.4,2.3-2.6,4.7c1.1,3.5,3.3,5.9,6.9,6.4c1.4,0.2,3-1.2,4.5-1.9
			c-0.1-0.2-0.1-0.5-0.2-0.7C58.6,33.3,55.9,30.3,54.3,26.2z M64.4,31.1c-0.5-1.2-0.4-2.7-2.4-2.4c-0.5,0.1-1.6-1.2-1.5-1.6
			c0.4-2.1-1.2-1.9-2.4-2.4C58.5,28.2,60.9,30.6,64.4,31.1z"/>
		<path class="st0" d="M16,115c0.5,1.3,1.1,2.5,1.3,3.8c0.1,0.5-0.5,1.5-1.1,1.8c-0.7,0.3-1.6,0.2-2.5,0.1c-0.7-0.1-1.6-0.2-1.9-0.6
			c-0.2-0.4,0.4-1.2,0.5-1.9c0.1-2,0.2-4,0.2-6c0-0.3-1.1-0.8-1.6-0.7c-0.6,0.1-1.5,0.8-1.5,1.3c0.1,2,0.4,4,0.8,5.9
			c0.3,1.3,0.3,2.1-1.3,2.1c-0.7,0-1.5,0.1-2.2,0s-1.6-0.2-1.9-0.7c-0.2-0.4,0.4-1.2,0.5-1.9c0.2-2.2,0.3-4.3,0.3-6.5
			c0-0.8-0.5-1.7-0.7-2.5c1-0.2,2.1-0.4,3.1-0.5c1.1-0.1,2.2,0.1,3.4,0.1c0.2,0,0.5-0.1,0.7,0c2.4,0.8,4.7,0.5,7.1,0.1
			s3.5,1,3.9,3.5c0.4,2.3-0.8,4.9,1.3,6.8c0.1,0.1,0.1,0.4,0,0.5c-0.3,0.4-0.7,1.1-1,1.1c-1.5,0-3.1-0.2-4.6-0.3
			c0.1-0.7,0.2-1.3,0.3-2c0.2-2,0.4-4,0.4-6c0-0.3-1.2-1.1-1.6-0.9c-0.6,0.1-1.2,0.9-1.5,1.5c-0.3,0.5-0.1,1.3-0.1,2
			C16.2,114.9,16.1,115,16,115z"/>
		<path class="st0" d="M-25.3,104.3c3.1,0,5.6-0.2,8,0c4.7,0.4,6,3.2,3.5,7.2c0.5,0.7,1.1,1.4,1.4,2.3c1.2,2.9-0.2,5.5-3.2,6.4
			c-0.6,0.2-1.3,0.3-2,0.4c-2.4,0-4.8,0-7.6,0C-23.6,115.2-23.4,109.9-25.3,104.3z M-20.3,113.7c0,1.6,0,2.8,0,4.4
			c1.8-0.4,4.3,0.5,4.3-2.3S-18.4,113.8-20.3,113.7z M-20.3,111.4c1.5-0.7,2.7-1.1,3.7-1.7c0.3-0.2,0.2-1.6,0-1.8
			c-1.1-0.5-2.3-0.8-3.7-1.2C-20.3,108.4-20.3,109.5-20.3,111.4z"/>
		<path class="st0" d="M27.2,120.5c0-3.7,0.1-7.3,0-11c0-1.2-0.8-2.4-0.8-3.7c0-0.7,0.5-1.9,1-2.1c0.8-0.4,1.9-0.1,3.2-0.1
			c0.1,1.8,0.2,3.5,0.3,5.1c0.2,0.1,0.4,0.3,0.5,0.2c2.3-0.6,4.7-0.9,6,1.4c1.4,2.6,1.4,5.5-0.2,8.1c-1.4,2.3-3.7,2.5-6.2,2.2
			C29.9,120.5,28.8,120.5,27.2,120.5z M30.7,114.8L30.7,114.8c0,0.3,0,0.7,0,1c0.1,1-0.4,2.3,1.3,2.4c1.5,0.1,2.4-0.7,2.5-2.1
			c0.1-1.1,0.2-2.2-0.1-3.2c-0.2-0.6-1.2-1.5-1.7-1.5c-0.7,0.1-1.5,1-1.9,1.7C30.4,113.5,30.7,114.2,30.7,114.8z"/>
		<path class="st0" d="M59.8,119.3c-2.5,1.6-5.2,1.7-8.1,1.2c-0.6-0.1-1.2-0.5-1.8-0.9c-2.6-2-3.2-9.2-1-12.6c1.8-2.9,5.9-3.9,9.6-2
			c0.6,0.3,1.3,1.3,1.3,1.9c0,0.7-0.7,1.5-1.1,2.2c-0.7-0.5-1.6-0.8-2.2-1.4c-1.2-1.4-4.2-0.9-4.6,1.1c-0.4,2.3-0.6,4.9,0,7.1
			c0.7,2.7,3.3,2,5.3,1.6C58.8,117.2,59.8,117.4,59.8,119.3z"/>
		<path class="st0" d="M80.7,108.8c1.7,0.1,2.6,0.2,3.6,0.3c0.3,2,0.3,2-3.2,2.4c0,1.7-0.1,3.5,0.1,5.3c0,0.5,0.9,0.9,1.3,1.4
			c0.4,0.5,0.9,1.1,0.8,1.5c-0.1,0.4-0.9,0.8-1.5,0.9c-1.6,0.1-3.3,0-5.2,0c0-0.8-0.2-1.5,0-2c1.3-2.6,1.5-5.2,0-7.8
			c-0.2-0.4,0-1.1,0.2-1.6c0.2-0.7,0.7-1.3,0.9-1.9c0.8-3.5,3.6-5,7-3.4c0.6,0.3,1.2,1.1,1.4,1.7c0.1,0.5-0.4,1.6-0.8,1.6
			c-0.7,0.1-1.4-0.3-2.1-0.6c-0.4-0.1-1.2-0.5-1.2-0.5C81.5,106.9,81.2,107.7,80.7,108.8z"/>
		<path class="st0" d="M91.5,108.3c1.2,1.3,4.1-0.6,3.5,2.7c-1.1,0.1-2.1,0.2-3.4,0.4c0,1.8-0.1,3.5,0.1,5.2c0.1,0.5,0.8,1,1.2,1.5
			s0.7,1,1,1.5c-0.6,0.3-1.1,0.9-1.7,1c-1.6,0.1-3.3,0-5,0c-0.1-0.6-0.3-1.1-0.2-1.4c1.5-2.9,1.2-5.7,0.3-8.8
			c-0.5-1.7,1.1-4.7,2.7-6.1c1.1-1,3.7-0.4,5.6-0.2c0.4,0,0.6,1.7,0.9,2.5c-0.8,0.2-1.6,0.5-2.3,0.4c-0.6,0-1.2-0.6-1.7-0.9
			C92,107,91.7,107.8,91.5,108.3z"/>
		<path class="st0" d="M62.4,115c0-4.1,2.2-6.4,5.9-6.4c3.5,0,5.4,2,5.5,5.7c0.1,3.9-2.1,6.5-5.6,6.5
			C64.4,120.9,62.5,118.9,62.4,115z M66,114.7c0.2,1.5-0.1,3.4,2.2,3.4c2.1,0,2-2,2-3.4c0-1.5,0-3.5-2.2-3.5
			C65.9,111.3,66.1,113.1,66,114.7z"/>
		<path class="st0" d="M-3.9,120.8c-3.7-0.1-5.7-2.2-5.6-6.1c0.1-3.9,2.4-6.2,6-6.1c3.5,0,5.5,2.3,5.5,6
			C1.9,118.5-0.3,120.9-3.9,120.8z M-1,115.3c-0.7-2-0.6-3.9-2.7-4s-2.2,1.7-2.1,3.2c0,1.6-0.1,3.8,2.2,3.5
			C-2.7,117.9-1.9,116.2-1,115.3z"/>
		<path class="st0" d="M113.9,115.6c0.5,2.9,2.3,2.4,3.9,2.4c0.7,0,1.4,0.4,2.1,0.7c-0.5,0.6-1,1.6-1.6,1.8
			c-2.4,0.7-4.8,0.7-6.8-1.2c-1.6-1.6-1.9-5.5-0.7-7.8s3.3-3,5.7-2.8c2.8,0.2,4.6,2.6,3.9,5.2c-0.2,0.7-1.3,1.5-2,1.6
			C117,115.8,115.6,115.6,113.9,115.6z M117.2,113.1c0.1-0.3,0.2-0.6,0.3-0.9c-0.7-0.4-1.4-1-2-1c-0.6,0.1-1.1,1-1.6,1.5
			c0.1,0.2,0.2,0.4,0.4,0.6C115.2,113.3,116.2,113.2,117.2,113.1z"/>
		<path class="st0" d="M101.1,115.6c0.6,2.6,1.2,2.8,6.1,1.9c-0.5,1.1-0.6,2.2-1.1,2.6c-1.9,1.3-5.7,0.7-7.3-0.7
			c-1.6-1.5-2-5.5-0.9-7.8c1-2,3.4-3.3,5.8-3c2.8,0.3,4.5,2.7,3.7,5.4c-0.2,0.7-1.3,1.4-2.1,1.5C104,115.8,102.6,115.6,101.1,115.6z
			 M104.3,113.1c0.1-0.2,0.2-0.4,0.3-0.7c-0.6-0.4-1.3-1.3-1.8-1.2c-0.7,0.1-1.3,0.9-2,1.4c0.1,0.2,0.3,0.5,0.4,0.7
			C102.3,113.3,103.3,113.2,104.3,113.1z"/>
	</g>
</g>
<g id="outer-circle" class="st2">
	<path class="st3" d="M152.3,47.2c0.9-0.3,1.9-0.5,3.2-0.9c10.1,42.3,1.4,79.8-29.3,110.7c-27.3,27.4-61,36.9-99.4,31.1
		c0.2-1.3,0.3-2.3,0.5-3.3c39.4,5.6,73.5-4.7,100.4-34.3C154.6,120.8,161.4,85.9,152.3,47.2z"/>
	<path class="st3" d="M8.1,179.3c-0.4,1.1-0.8,1.9-1.1,2.8C-59.6,157.8-89.3,72.3-42.7,9.6c0.8,0.6,1.7,1.3,2.6,2
		c-21,29.3-27.3,61.4-17.4,95.9C-47.6,141.9-25,165.4,8.1,179.3z"/>
	<path class="st3" d="M-26.7-3.4c-0.7-0.8-1.3-1.5-2.2-2.4c24.6-21.6,53-32,85.5-28.9c41.3,3.9,71.3,25.2,91.3,61.5
		c-0.7,0.5-1.1,0.8-1.5,1s-0.9,0.4-1.5,0.7c-17-31.6-42.6-51.7-77.9-58.3C31.7-36.5,0.6-26.8-26.7-3.4z"/>
</g>
</svg>
